<svg xmlns="http://www.w3.org/2000/svg" version="1.1" height="1.5rem" viewBox="0 0 27 27">
    <path d="M9.7,18.1l-3.2-3.2,3.2-3.2.8.8-2.4,2.4,2.4,2.4-.8.8Z"/>
    <path d="M17.3,18.1l-.8-.8,2.4-2.4-2.4-2.4.8-.8,3.2,3.2-3.2,3.2Z"/>
    <path d="M11.6,18.1l2.7-6.5,1,.4-2.7,6.5-1-.4Z"/>
    <path d="M2.2,4.8v17.4h22.5V4.8H2.2ZM21.7,6.5c.3,0,.6.3.6.6s-.3.6-.6.6-.6-.3-.6-.6.3-.6.6-.6ZM19.7,6.5c.3,0,.6.3.6.6s-.3.6-.6.6-.6-.3-.6-.6.3-.6.6-.6ZM17.7,6.5c.3,0,.6.3.6.6s-.3.6-.6.6-.6-.3-.6-.6.3-.6.6-.6ZM23.1,20.5H3.9v-11.2h19.1v11.2Z"/>
</svg>