<svg xmlns="http://www.w3.org/2000/svg" version="1.1" height="1.5rem" viewBox="0 0 27 27">
    <path d="M19.3,18.4l6.3-4-1.7-.6c-.3,0-.5-.4-.4-.7,0,0,0,0,0,0l1.4-3.3-3.6.8c-.3,0-.6-.1-.7-.4,0,0,0,0,0,0l-.2-1.8-2.7,2.9c-.2.2-.4.2-.6,0-.1,0-.2-.2-.1-.4l1.2-6.7-2.2,1.4c-.3.2-.6.1-.8-.2,0,0,0,0,0,0l-1.8-4.2-1.8,4.2c-.1.3-.5.4-.7.3,0,0,0,0,0,0l-2.2-1.4,1.2,6.7c0,.2-.1.4-.3.5-.1,0-.3,0-.4-.1l-2.7-2.9-.2,1.8c0,.3-.3.5-.6.5,0,0,0,0,0,0l-3.6-.8,1.4,3.3c.1.3,0,.6-.3.7,0,0,0,0,0,0l-1.7.6,6.3,4c.2.1.3.4.2.7l-1,2.6,5.7-1.3c.2,0,.3,0,.3.2,0,0,0,0,0,0l-.3,5.3h1.7l-.3-5.3c0-.2.1-.3.3-.3,0,0,0,0,0,0l5.7,1.3-1-2.6c-.1-.3,0-.5.2-.7Z"/>
</svg>